<?xml version="1.0" encoding="UTF-8"?>
<svg id="Layer_1" xmlns="http://www.w3.org/2000/svg" version="1.1" viewBox="0 0 160 41">
  <!-- Generator: Adobe Illustrator 29.8.4, SVG Export Plug-In . SVG Version: 2.1.1 Build 6)  -->
  <path d="M27.7,28.75c0,1.47-.16,5.23-1.71,7.02-1.51,1.82-3.09,2.06-4.16,2.18-.95.08-4.48,0-5.71-.12s-3.37-.99-5.23-2.46c-1.74-1.43-3.73-3.25-5.23-5.23-1.55-2.06-2.18-4.08-2.3-5.39-.12-1.27-.2-3.21-.2-3.41,0-.24.12-.2.32-.2h4.4c.59,0,.2-.12,0-.24-.12-.12-.48-.4-1.03-.99-.59-.59-.91-.95-1.82-2.26-.95-1.27-1.35-2.46-1.67-3.97-.32-1.43-.44-2.93,0-4.76.48-1.82,1.43-2.93,2.42-3.97,1.03-1.11,2.18-1.67,3.97-2.06,1.71-.44,3.45-.16,4.84.24,1.47.32,2.66,1.31,3.97,2.26,1.35.95,1.82,1.43,3.17,2.7,1.39,1.23,2.97,3.05,4.04,4.44,1.07,1.35,1.55,3.01,1.67,3.85.2,1.03.12,2.3.12,2.7,0,.36-.16.59-.36.67-.24.12-1.43.12-1.98.12-.59,0-2.46-.08-2.58-.08s-.12,0,0,.08c.12.12.67.71,1.94,2.26,1.23,1.51,2.1,2.85,2.5,3.57.36.67.56,1.67.56,3.09h.08v-.04ZM19.49,19.11c-1.03-1.43-2.82-3.29-5.75-3.81-2.85-.52-3.81-.95-4.44-2.18s-.24-2.82.59-3.57c.79-.75,2.46-1.27,3.93-.32,1.47.87,1.67,3.45,1.67,3.57,0,.16,0,.2.28.2.32,0,4.24.16,4.44.16s.28.04.28-.24.08-1.51-.28-3.01c-.4-1.47-.95-3.13-2.78-4.56-1.82-1.47-3.69-2.02-5.91-2.02s-4.48,1.35-5.63,2.66c-1.11,1.35-2.14,3.01-2.1,5,.08,1.98.59,4.4,2.02,6.03,1.39,1.67,2.89,2.26,4.16,2.58s2.97.52,3.73.95c.79.48,1.82,1.11,1.86,2.93.08,1.82-1.31,3.13-3.21,3.01-1.86-.08-2.82-1.27-3.09-2.26-.28-.95-.32-1.86-.32-2.06,0-.16-.08-.16-.28-.16h-4.52c-.24,0-.24.04-.24.16,0,.2.12,2.06.59,3.53.59,1.39,1.27,3.05,3.37,4.52,2.14,1.43,3.73,1.51,5.31,1.43,1.51-.08,3.77-.52,5.63-2.78,1.82-2.22,1.82-4.04,1.86-5.51.04-1.47-.28-2.89-1.19-4.28h0v.04Z"/>
  <path d="M53.27,37.71s-.08.32-.28.36c-.12,0-2.18.12-3.33.12h-3.41s-.24,0-.4-.12c-.16-.16-3.21-2.78-3.37-2.89-.12-.08-.24,0-.24.12-.04.2-.04,2.46-.04,2.58s0,.32-.2.36c-.2,0-6.07.08-6.46.08-.44-.04-.56-.24-.95-.56-.36-.24-5.04-5.15-5.23-5.35-.2-.16-.16-.2-.16-.67,0-.44-.08-8.29-.08-11.58s.2-15.86.2-16.26c0-.28,0-.36.48-.44s5.43,0,5.87,0c.4,0,.75.08,1.15.36.36.24,2.97,2.62,3.33,2.89.28.24.2.16.2-.16s.04-2.26,0-2.66c0-.48.08-.44.44-.44.32,0,5.71,0,6.15-.04.44,0,.59.04,1.07.44.48.36,4.6,4.24,4.92,4.6.36.32.28.59.28.99,0,.44.12,10.15.12,13.56v14.75h-.04v-.04ZM46.1,31.21c.04-.36-.08-26.57,0-26.84,0-.32-.12-.28-.44-.28h-4.16c-.24,0-.44,0-.44.4.04.36,0,9.83,0,10.23,0,.44,0,.48-.44.52-.32,0-4.88.08-5.23,0-.28,0-.44-.08-.48-.59,0-.52-.12-10.07-.08-10.35.04-.32,0-.32-.32-.32h-4.2s-.32,0-.32.16v13.16c-.04,6.86-.04,13.8-.04,13.96.04.32,0,.48.28.48h4.56c.24,0,.24-.08.24-.24,0-.24-.04-10.11,0-10.47.08-.36.08-.4.32-.4.32,0,5.19-.12,5.47-.12.24,0,.28,0,.28.36,0,.24.12,9.91.12,10.27,0,.44.12.56.4.56h4.2c.36,0,.36-.16.36-.52h-.08v.04Z"/>
  <path d="M79.21,14.83c0,.28,0,.32-.28.36-.32,0-8.6-.08-8.8-.12-.2,0-.24.04-.16.16.12.16,3.37,4.6,3.45,4.72.12.16.12.2.12.36,0,.2.12,4.48.12,4.68,0,.16,0,.24-.08.32-.08,0-.16.08,0,.24.12.12,5.23,5.15,5.39,5.35.12.2.16.24.16.44.04.16.04,5.51.04,5.87s-.08.4-.36.4c-.32,0-16.85.16-17.05.16s-.24-.04-.4-.16-5.39-5-5.51-5.12c-.08-.12-.32-.2-.32-.56s.32-27.68.28-28.11c-.04-.28.08-.36.44-.4.32-.08,16.89,0,17.17,0,.24,0,.32,0,.52.16.2.12,4.88,4.24,5.12,4.48s.16.28.16.56c0,.24,0,5.91,0,6.23ZM72.35,4.4s0-.24-.2-.24c-.2-.04-15.19-.12-15.38-.12-.24,0-.32.04-.32.32,0,.32-.44,27.04-.36,27.24.04.12.12.2.2.2.12,0,15.7-.16,16.02-.16.24,0,.2-.12.16-.28v-4.8s0-.24-.24-.24h-10.43s-.24-.12-.24-.32v-5.39s.08-.28.28-.32h5.47s.2-.04.2-.2.08-4.64.08-4.8c0-.2,0-.16-.08-.16s-5.55-.08-5.75-.08c-.16,0-.2-.08-.2-.24v-5.27s0-.12.24-.16c.2,0,9.91-.08,10.23-.12.36-.08.36-.16.36-.36v-4.52h-.04Z"/>
  <path d="M105.5,35.69s0,.28-.2.59c-.2.28-.79.99-1.55,1.23-.67.28-2.38.16-2.85.16-.52,0-.99,0-1.67-.32-.71-.32-5-3.65-5.35-4-.36-.32-.52-.16-.52.12,0,.36-.16,3.61,0,3.85,0,.24-.24.32-.56.36h-5.63s-.28,0-.4-.16-5.23-5-5.39-5.15-.36-.44-.32-.83V3.89c0-.44.24-.44.87-.52.63-.04,6.78,0,9.12.28,2.38.2,4.36,1.11,6.07,2.34,1.67,1.23,4.6,4.4,5.39,5.43.87,1.07,1.82,2.06,2.42,3.97.67,2.02.67,3.57.4,4.84-.28,1.31-1.43,2.78-1.63,2.97-.16.2-.16.28,0,.44.12.16.71.63,1.35,1.78.56,1.15.4,2.74.44,4.6,0,1.78.08,5.51.08,5.71h-.08v-.04ZM100.18,28.07s-1.19-.36-1.63-1.19c-.44-.75-.44-1.03-.48-2.3,0-1.23-.08-2.97-.59-4.04-.48-1.03-1.23-1.9-1.35-2.1-.16-.2-.08-.28,0-.4.12-.16,1.11-.99,1.67-3.09.59-2.1.32-4.12-.4-5.47-.75-1.35-1.86-3.25-4-4.32-2.22-1.07-4.2-1.11-5.47-1.15-1.27-.08-5.75-.16-5.99-.16-.2.08-.16.12-.2.24,0,.24.08,9.04.04,14-.08,4.84,0,13.01,0,13.24,0,.2,0,.4.24.4h4.52s.32,0,.28-.32c0-.24.04-10.15.04-10.47s.12-.32.32-.36c.16-.04,3.25-.28,4.28.4.99.75,1.55,1.39,1.55,3.21s0,4.96.99,6.07c.91,1.15,1.67,1.43,2.62,1.39.99-.04,1.78-.04,2.7-1.15.87-1.15.91-1.74.99-2.02.04-.2,0-.36-.12-.4ZM87.02,9.28s1.03-.08,2.06-.08,1.59.16,2.06.36c.44.2,2.06,1.07,1.94,3.01-.12,1.98-1.19,2.42-2.1,2.74-.95.36-3.21.2-3.69.16-.44,0-.48-.32-.48-.56s-.12-5.08-.08-5.35c0-.2.12-.24.28-.28Z"/>
  <path d="M126.31,25.93c-2.06,1.27-5.15,1.55-5.47,1.55-.36,0-.28.12-.32.48,0,.28-.08,8.53-.08,9.08-.08.59-.2.56-.52.56s-6.5-.08-6.9-.12c-.48,0-.67-.12-.91-.4-.24-.24-1.23-1.07-2.22-2.06s-2.42-2.58-2.58-2.78c-.16-.24-.2-.32-.2-.71V3.85c0-.44.28-.4.67-.52.32-.08,6.3-.08,8.49,0,2.1.08,2.97.56,4.68,1.59,1.71.99,6.42,5.55,7.18,6.58.75.95,2.78,2.42,2.85,7.18.12,4.72-2.54,6.07-4.68,7.26h0ZM124.09,12.25c0-2.46-1.19-4.16-2.26-5.39-1.07-1.19-2.7-2.58-5.08-2.7-2.42-.08-8.21-.12-8.56-.08-.32,0-.32-.04-.36.16,0,.24-.12,9.36-.08,13.48,0,4.16.08,13.2.08,13.52,0,.28-.12.44.28.44s4,.12,4.32.08c.4,0,.44,0,.44-.4v-5.15c0-2.34.16-5.43.12-5.67,0-.28.16-.24.36-.24.28,0,2.97,0,4.6-.2,1.55-.24,2.58-.71,3.81-2.06,1.19-1.31,2.38-3.29,2.34-5.79ZM113.43,9.24c.44-.08,2.34,0,3.01.16.71.16,2.42.83,2.38,2.82,0,1.98-1.15,2.38-2.18,2.78-1.03.32-2.82.2-3.25.2-.4,0-.52-.16-.52-.52v-5.12c0-.28.12-.24.56-.32Z"/>
  <path d="M156.57,37.67s-5.27.08-5.43.08c-.2-.04-.32-.12-.48-.24-.12-.12-2.18-1.78-2.89-2.5-.75-.63-2.7-2.34-2.78-2.42-.08-.12-.12-.2-.16-.08,0,.2-.24,1.39-.44,2.38-.24,1.03-.52,2.22-.56,2.5-.04.2-.2.32-.4.36-.28,0-6.82,0-7.26-.04-.32,0-.48-.08-.71-.32-.28-.2-5.08-4.92-5.23-5.08-.16-.2-.16-.36-.08-.63.08-.32,6.62-27.91,6.66-28.11.08-.2.16-.24.48-.28h7.53c.52.04.63.2,1.11.56.44.4,5.23,4.92,5.51,5.19.32.32.32.36.44.75s1.15,4.72,1.98,8.64c.91,3.89,2.82,12.29,2.85,12.61.08.36.08.4.12.79,0,.4,0,5.23.08,5.51,0,.24-.16.32-.36.32ZM150.86,31.56s-1.19-5.99-2.62-12.13c-1.67-7.18-3.53-14.95-3.53-15.03,0-.16,0-.4-.2-.4h-6.74s-.12,0-.16.24c0,.2-6.5,27.08-6.58,27.36,0,.12,0,.16.08.16h5s.12,0,.12-.12c0-.08.59-2.34.79-3.13.24-.87.59-2.38.67-2.5.08-.16.12-.2.28-.24h2.89c1.47-.04,3.21,0,3.45,0s.32.12.36.32c0,.16,1.11,5.31,1.15,5.47s0,.2.16.2h4.72c.24,0,.2-.08.16-.24h0v.04ZM143.72,21.25c.08.28-.24.32-.48.36h-4.08s-.36,0-.32-.32c.08-.32.71-3.25,1.11-4.88.36-1.63.99-4.52,1.11-5.04s.36-.4.4-.12c.08.32.75,3.09,1.31,5.63.52,2.42.91,4.16.95,4.4h0v-.04Z"/>
</svg>